#!OML:ASF E:/inclinewalkrobotboard/Project1/Captureday1/Session1/subject1.ASF
:FULLY-SPECIFIED
:DEGREES
138
root 0 0 0 1.0393374314690405 -3.6726144417682924 1.8303399334602006
lowerback 11.9786421734394 0.8494836184923759 -0.06282564453489606
upperback -4.23049143488784 1.0787441096238257 -0.5427740062994911
thorax -11.341330992458078 0.4937879606378885 -0.7840611972779844
lowerneck -5.779848562186941 1.4864125309460339 4.565028809571626
upperneck 18.034301230405408 2.9414753852549644 -8.344293727325546
head 6.589022505693683 1.074092302489281 -3.2248947794521308
rclavicle 2.0689212813995883E-16 -2.0347590866920255E-15
rhumerus 19.887477364834126 14.348745490884149 -47.73783579588272
rradius 72.2313873980998
rwrist 27.129766009429694
rhand -34.62846027823021 -57.10405773916449
rfingers 7.125020000000035
rthumb -7.781530524531522 -87.15857824568266
lclavicle -1.1112901850827638E-16 -4.504228971517236E-16
lhumerus 21.029514850992623 -12.455351147027756 45.30160881413257
lradius 70.02919550320087
lwrist -22.26471016467686
lhand -44.78272245853168 -70.24377822729599
lfingers 7.125020000000026
lthumb -17.57082590398313 -40.9220971409935
rfemur -24.69678860733536 -2.314719526013199 17.11122338309299
rtibia 54.50819471707495
rfoot -28.99496635212559 -16.65465644430119
rtoes -18.496579900682494
lfemur -25.899797027310843 2.4394467122637082 -18.063636528423814
ltibia 53.196416629879124
lfoot -30.79171970493298 -3.4570431679970666
ltoes -20.878614263622612
139
root 0 0 0 1.0393768972663828 -3.6725076831730012 1.8303754344229126
lowerback 11.978639125233325 0.8494955498779452 -0.0628627166110663
upperback -4.230518445540595 1.078752838159744 -0.5427977254446945
thorax -11.341358107094443 0.49379308334035305 -0.7840681263286015
lowerneck -5.7800849961502685 1.486430989409887 4.564988231666879
upperneck 18.034433851931222 2.941486254825527 -8.34417949989724
head 6.589105574660048 1.0740991374507378 -3.2248522835709768
rclavicle 1.987536915964615E-16 -2.034650948613363E-15
rhumerus 19.88654629780678 14.347765529903835 -47.73780364325898
rradius 72.23066700653507
rwrist 27.130116825329647
rhand -34.62898169758455 -57.10459929115996
rfingers 7.125020000000035
rthumb -7.782017331335757 -87.15915732327251
lclavicle -1.1877322151102088E-16 -4.493473415725809E-16
lhumerus 21.029445123507188 -12.455063899704403 45.30202131411329
lradius 70.02898873941136
lwrist -22.26454392487196
lhand -44.78302447908102 -70.2452408087647
lfingers 7.125020000000026
lthumb -17.57112740791344 -40.92353940598139
rfemur -24.697112325723943 -2.3148841924078463 17.111250708782933
rtibia 54.509124343863164
rfoot -28.99463731865048 -16.654601066913038
rtoes -18.49601732042437
lfemur -25.9004756891716 2.4395146469084166 -18.06376027219729
ltibia 53.19761353229431
lfoot -30.79108434090007 -3.457397628054606
ltoes -20.876955527334495
140
root 0 0 0 1.0394457332572342 -3.6723699862085653 1.8304121639998758
lowerback 11.978650241828792 0.8495067671396082 -0.06291010583032211
upperback -4.230551548544749 1.0787599771400551 -0.5428241633800606
thorax -11.341401731058307 0.49379729943684086 -0.7840722588424032
lowerneck -5.780396270604014 1.48644435358103 4.564913739958453
upperneck 18.03458869451895 2.9414873592531756 -8.344011449738172
head 6.589209277341682 1.074100977897309 -3.224787568240596
rclavicle 1.9504108432437708E-16 -2.0345944207387345E-15
rhumerus 19.885681221434687 14.346912741671096 -47.7379990614365
rradius 72.23003307348023
rwrist 27.130297183104155
rhand -34.6296638534331 -57.10521740466862
rfingers 7.125020000000035
rthumb -7.7826716874058555 -87.15977676167078
lclavicle -1.2247548633322916E-16 -4.4865363063735015E-16
lhumerus 21.029225778702628 -12.454670802019956 45.302502078127
lradius 70.02869230094566
lwrist -22.26437987320947
lhand -44.78328393779242 -70.24660510507769
lfingers 7.125020000000026
lthumb -17.571373119602047 -40.92494607506931
rfemur -24.697253064650727 -2.31492457704197 17.111217332777834
rtibia 54.509373250593036
rfoot -28.994372451332236 -16.654631566430773
rtoes -18.495658261126973
lfemur -25.901285265454998 2.439466708826437 -18.063884534324327
ltibia 53.19818226695085
lfoot -30.790933264171052 -3.4574582192010888
ltoes -20.875189711326843
141
root 0 0 0 1.0392913241521589 -3.6727866335099266 1.8302420790546177
lowerback 11.978665839116005 0.8494525530967032 -0.06277717235145555
upperback -4.230440911130841 1.078718067993683 -0.5427269192646723
thorax -11.34131076724577 0.49377258078294217 -0.784035601428585
lowerneck -5.779390199026693 1.486378776142836 4.5650615998591775
upperneck 18.034025550887073 2.941468009475196 -8.344453044002442
head 6.588859398285559 1.0740729081002938 -3.224941958650123
rclavicle 1.8432309189168105E-16 -2.0263853599809074E-15
rhumerus 19.887077677308465 14.348702311734389 -47.73706451067243
rradius 72.23057770256845
rwrist 27.12902985104042
rhand -34.6253379871946 -57.09911335891715
rfingers 7.125020000000035
rthumb -7.7784099011478425 -87.15338609357478
lclavicle -1.336382106521469E-16 -4.3865070023318803E-16
lhumerus 21.03059155842034 -12.456839552777502 45.30110231036329
lradius 70.0292294910543
lwrist -22.26388174580909
lhand -44.78206798782698 -70.23622461303654
lfingers 7.125020000000026
lthumb -17.57007393382906 -40.91485529546732
rfemur -24.695893342421446 -2.313688508616971 17.111409323720316
rtibia 54.5025910406446
rfoot -28.99516968754552 -16.65442846608259
rtoes -18.49441090753886
lfemur -25.897538678196344 2.4391580560844073 -18.06326708445436
ltibia 53.193610271459065
lfoot -30.794880121114318 -3.4554229776833294
ltoes -20.882735875953536
